<?xml version="1.0" encoding="UTF-8"?><svg id="_Слой_2" xmlns="http://www.w3.org/2000/svg" width="181.81" height="33.47" viewBox="0 0 181.81 33.47"><defs><style>.cls-1{fill:#fff;}.cls-2{fill:#4c4d4d;}</style></defs><g id="_Слой_1-2"><g id="Logo_d_b"><path class="cls-2" d="M35.73,0H1.61C.72,0,0,.79,0,1.77v22.65c0,.98.72,1.77,1.61,1.77h34.12c.89,0,1.61-.79,1.61-1.77V1.77c0-.98-.72-1.77-1.61-1.77ZM34.27,22.82H3.06V3.37h31.21v19.45Z"/><rect class="cls-2" x="4.32" y="4.76" width="28.7" height="16.67"/><polygon class="cls-2" points="33.01 29.5 4.32 29.5 4.79 27.65 32.54 27.65 33.01 29.5"/><path class="cls-2" d="M34.22,27.62l.78,2.85H2.33l.78-2.85C1.1,27.62,0,29.16,0,30.88c0,1.26.52,2.18,1.63,2.58h34.06c1.11-.4,1.63-1.32,1.63-2.58,0-1.72-1.1-3.26-3.11-3.26Z"/><path class="cls-2" d="M60.65,5.03v19.67h-4.31v-1.43c-.84,1.11-2.1,1.67-3.79,1.67-1.18,0-2.25-.3-3.22-.91-.97-.61-1.74-1.48-2.3-2.61-.56-1.13-.85-2.44-.85-3.92s.28-2.79.85-3.91c.56-1.12,1.33-1.98,2.3-2.59.97-.6,2.04-.9,3.22-.9,1.54,0,2.73.5,3.57,1.48v-6.55h4.53ZM55.44,20.02c.51-.61.76-1.45.76-2.53s-.25-1.89-.75-2.49c-.5-.6-1.15-.9-1.94-.9s-1.45.3-1.95.9c-.51.6-.76,1.43-.76,2.49s.25,1.92.76,2.53c.51.61,1.16.91,1.95.91s1.42-.3,1.93-.91Z"/><path class="cls-2" d="M76.68,18.79h-9.39c.19.74.56,1.31,1.11,1.71.55.4,1.23.6,2.06.6.62,0,1.16-.1,1.61-.29.45-.2.91-.51,1.37-.95l2.38,2.76c-1.25,1.56-3.09,2.33-5.5,2.33-1.51,0-2.83-.32-3.98-.95s-2.03-1.52-2.66-2.65c-.63-1.13-.94-2.41-.94-3.84s.31-2.68.92-3.8c.61-1.12,1.46-2,2.54-2.64,1.08-.64,2.29-.95,3.64-.95s2.45.3,3.5.89c1.05.59,1.88,1.45,2.49,2.57.61,1.12.92,2.45.92,3.99,0,.04-.02.45-.07,1.25ZM68.12,14.33c-.47.44-.77,1.04-.89,1.8h5.29c-.13-.76-.42-1.36-.89-1.8-.47-.44-1.05-.66-1.75-.66s-1.28.22-1.75.66Z"/><path class="cls-2" d="M100.01,10.33l-4.6,14.37h-4.38l-2.43-7.82-2.53,7.82h-4.38l-4.6-14.37h4.29l2.64,8.7,2.74-8.7h3.86l2.67,8.78,2.74-8.78h3.98Z"/><path class="cls-2" d="M103.77,23.98c-1.11-.64-1.98-1.52-2.61-2.65-.63-1.13-.94-2.41-.94-3.84s.31-2.69.94-3.82,1.49-2.01,2.6-2.64c1.1-.63,2.35-.94,3.75-.94s2.65.31,3.76.94c1.11.63,1.98,1.5,2.6,2.62.62,1.12.93,2.4.93,3.83s-.31,2.71-.93,3.84c-.62,1.13-1.49,2.02-2.6,2.65s-2.37.95-3.76.95-2.63-.32-3.74-.95ZM109.46,20.02c.51-.61.76-1.45.76-2.53s-.25-1.89-.76-2.49c-.51-.6-1.16-.9-1.95-.9s-1.45.3-1.95.9c-.51.6-.76,1.43-.76,2.49s.25,1.92.76,2.53c.51.61,1.16.91,1.95.91s1.45-.3,1.95-.91Z"/><path class="cls-2" d="M123.01,10.58c.74-.33,1.58-.49,2.54-.49v4.53c-.41-.05-.75-.08-1.02-.08-.97,0-1.73.29-2.28.87-.55.58-.82,1.48-.82,2.68v6.6h-4.53v-14.37h4.31v1.72c.46-.65,1.06-1.14,1.8-1.47Z"/><path class="cls-2" d="M133.26,19.66l-1.33,1.51v3.53h-4.53V5.03h4.53v10.31l4.62-5.01h5.36l-5.36,6.15,5.81,8.22h-5.48l-3.62-5.04Z"/><path class="cls-2" d="M143.96,7.97c-.51-.51-.76-1.15-.76-1.91s.25-1.4.76-1.91c.51-.51,1.17-.77,2-.77s1.49.24,2,.73c.51.49.76,1.11.76,1.87s-.25,1.45-.76,1.98c-.51.52-1.17.78-2,.78s-1.49-.26-2-.77ZM143.69,10.33h4.53v14.37h-4.53v-14.37Z"/><path class="cls-2" d="M163.43,11.68c.98,1.06,1.47,2.66,1.47,4.8v8.22h-4.53v-7.4c0-1.96-.71-2.94-2.12-2.94-.78,0-1.4.28-1.87.85-.47.57-.7,1.41-.7,2.54v6.95h-4.53v-14.37h4.31v1.56c.51-.58,1.11-1.03,1.81-1.34.7-.31,1.46-.46,2.29-.46,1.6,0,2.89.53,3.87,1.59Z"/><path class="cls-2" d="M181.81,10.33v11.74c0,2.67-.65,4.67-1.95,6.01-1.3,1.33-3.18,2-5.62,2-1.27,0-2.46-.16-3.57-.48s-2.06-.79-2.83-1.41l1.64-3.53c.52.48,1.19.85,1.99,1.13s1.59.41,2.37.41c1.19,0,2.06-.29,2.62-.87s.83-1.45.83-2.6v-.48c-.87,1.13-2.15,1.7-3.84,1.7-1.14,0-2.2-.29-3.17-.86-.97-.57-1.74-1.39-2.31-2.44-.57-1.05-.86-2.27-.86-3.64s.29-2.57.86-3.62,1.34-1.86,2.31-2.44c.97-.57,2.02-.86,3.17-.86,1.84,0,3.19.66,4.05,1.99v-1.75h4.31ZM176.53,19.13c.53-.55.8-1.25.8-2.12s-.26-1.57-.79-2.11c-.52-.54-1.2-.81-2.02-.81s-1.5.27-2.04.81c-.53.54-.8,1.24-.8,2.11s.27,1.57.81,2.12c.54.55,1.21.82,2.02.82s1.48-.27,2.01-.82Z"/><path id="D" class="cls-1" d="M24.52,12.97c-.06-3.09-1.53-6.43-5.28-6.43h-4.44v13.12h4.59c3.34,0,5.19-3.58,5.12-6.69ZM21.36,16.56c-.54.61-1.2.92-1.96.92h-2.61v-8.76h2.46c2.89,0,3.27,3.01,3.3,4.31.03,1.3-.44,2.69-1.19,3.54Z"/></g></g></svg>