<?xml version="1.0" encoding="UTF-8"?><svg id="_Слой_2" xmlns="http://www.w3.org/2000/svg" width="207.49" height="168.81" viewBox="0 0 207.49 168.81"><defs><style>.cls-1{fill:#fff;}.cls-2{fill:#4c4d4d;}</style></defs><g id="_Слой_1-2"><g id="Logo_mobile_b"><path class="cls-2" d="M198.56,0H8.93C3.99,0,0,4,0,8.93v114.24c0,4.93,3.99,8.92,8.93,8.92h189.63c4.94,0,8.93-3.99,8.93-8.92V8.93c0-4.93-3.99-8.93-8.93-8.93ZM190.49,115.09H17V17h173.49v98.09Z"/><rect class="cls-2" x="24" y="24" width="159.49" height="84.09"/><polygon class="cls-2" points="183.49 148.82 24 148.82 26.64 139.46 180.85 139.46 183.49 148.82"/><path class="cls-2" d="M190.17,139.31l4.34,14.38H12.98l4.34-14.38C6.14,139.31.03,147.08.03,155.78c0,6.37,2.88,11,9.06,13.03h189.31c6.19-2.03,9.06-6.66,9.06-13.03,0-8.7-6.11-16.46-17.29-16.46Z"/><path id="D" class="cls-1" d="M130.74,65.41c-.36-15.6-8.5-32.46-29.33-32.46h-24.67v66.19h25.52c18.56,0,28.85-18.05,28.48-33.73ZM113.14,83.51c-3.01,3.07-6.67,4.63-10.88,4.63h-14.52v-44.19h13.67c16.09,0,18.18,15.19,18.34,21.72.15,6.57-2.44,13.57-6.61,17.84Z"/></g></g></svg>